<?xml version="1.0" encoding="UTF-8" standalone="no"?><!DOCTYPE svg PUBLIC "-//W3C//DTD SVG 1.1//EN" "http://www.w3.org/Graphics/SVG/1.1/DTD/svg11.dtd"><svg width="100%" height="100%" viewBox="0 0 31 31" version="1.1" xmlns="http://www.w3.org/2000/svg" xmlns:xlink="http://www.w3.org/1999/xlink" xml:space="preserve" xmlns:serif="http://www.serif.com/" style="fill-rule:evenodd;clip-rule:evenodd;stroke-linejoin:round;stroke-miterlimit:2;"><clipPath id="_clip1"><rect id="btc_icon.svg" x="0" y="0" width="30.72" height="30.72"/></clipPath><g clip-path="url(#_clip1)"><g><path d="M30.259,19.076c-2.052,8.228 -10.386,13.236 -18.615,11.184c-8.227,-2.051 -13.235,-10.386 -11.182,-18.614c2.05,-8.23 10.385,-13.238 18.612,-11.187c8.229,2.052 13.236,10.388 11.185,18.617Z" style="fill:#f7931a;fill-rule:nonzero;"/><path d="M22.132,13.172c0.306,-2.044 -1.25,-3.143 -3.378,-3.876l0.69,-2.768l-1.685,-0.42l-0.672,2.695c-0.443,-0.11 -0.898,-0.214 -1.35,-0.318l0.677,-2.713l-1.685,-0.42l-0.69,2.768c-0.367,-0.084 -0.727,-0.166 -1.076,-0.253l0.001,-0.009l-2.324,-0.58l-0.448,1.8c-0,-0 1.25,0.286 1.224,0.304c0.683,0.17 0.806,0.622 0.785,0.98l-0.786,3.154c0.047,0.012 0.108,0.03 0.175,0.056c-0.056,-0.013 -0.116,-0.029 -0.178,-0.044l-1.102,4.419c-0.083,0.207 -0.295,0.518 -0.772,0.4c0.017,0.025 -1.225,-0.306 -1.225,-0.306l-0.837,1.929l2.193,0.547c0.408,0.102 0.808,0.209 1.202,0.31l-0.698,2.801l1.684,0.42l0.69,-2.771c0.46,0.125 0.907,0.24 1.343,0.348l-0.688,2.758l1.685,0.42l0.698,-2.795c2.874,0.544 5.035,0.324 5.944,-2.275c0.733,-2.093 -0.036,-3.3 -1.548,-4.087c1.101,-0.254 1.93,-0.978 2.151,-2.474Zm-3.85,5.399c-0.521,2.093 -4.045,0.962 -5.187,0.678l0.925,-3.71c1.143,0.285 4.806,0.85 4.262,3.032Zm0.521,-5.43c-0.475,1.904 -3.408,0.937 -4.359,0.7l0.839,-3.365c0.951,0.237 4.015,0.68 3.52,2.665Z" style="fill:#fff;fill-rule:nonzero;"/></g></g></svg>